<?xml version="1.0" encoding="utf-8"?>
<!-- Generator: Adobe Illustrator 24.0.0, SVG Export Plug-In . SVG Version: 6.00 Build 0)  -->
<svg version="1.1" id="图层_1" xmlns="http://www.w3.org/2000/svg" xmlns:xlink="http://www.w3.org/1999/xlink" x="0px" y="0px"
	 viewBox="0 0 1024 1024" style="enable-background:new 0 0 1024 1024;" xml:space="preserve">
<style type="text/css">
	.st0{fill:#478CCB;}
</style>
<g>
	<path class="st0" d="M844.1,52.7H184c-73.1,0-132.5,59.5-132.5,132.5v660.1c0,73.1,59.5,132.5,132.5,132.5h660.1
		c73.1,0,132.5-59.5,132.5-132.5V185.3C976.7,112.2,917.2,52.7,844.1,52.7z M886.7,845.4c0,23.5-19.1,42.5-42.5,42.5H184
		c-23.5,0-42.5-19.1-42.5-42.5V185.3c0-23.5,19.1-42.5,42.5-42.5h660.1c23.5,0,42.5,19.1,42.5,42.5V845.4z"/>
	<rect x="262.7" y="574.9" class="st0" width="90" height="112.3"/>
	<rect x="262.7" y="415.8" class="st0" width="90" height="112.3"/>
	<rect x="262.7" y="734.1" class="st0" width="90" height="112.3"/>
	<rect x="573.6" y="264" class="st0" width="112.3" height="90"/>
	<rect x="414.5" y="264" class="st0" width="112.3" height="90"/>
	<rect x="732.8" y="264" class="st0" width="112.3" height="90"/>
	<polygon class="st0" points="767,518.5 767,428.5 424.9,428.5 424.9,770.6 514.9,770.6 514.9,586.1 742,813.2 805.6,749.6 
		574.6,518.5 	"/>
	<polygon class="st0" points="262.7,354 352.7,354 367.7,354 367.7,264 262.7,264 	"/>
</g>
</svg>
